<svg width="32" height="33" viewBox="0 0 32 33" fill="none" xmlns="http://www.w3.org/2000/svg">
<path d="M12.1545 17.6315V21.5687H20.0289V17.6315H29.2156V26.8183C29.2156 27.5431 28.6281 28.1307 27.9032 28.1307H4.28017C3.55536 28.1307 2.96777 27.5431 2.96777 26.8183V17.6315H12.1545ZM14.7793 15.0067H17.4041V18.9439H14.7793V15.0067ZM9.52974 7.13239V3.19521C9.52974 2.4704 10.1173 1.88281 10.8421 1.88281H21.3413C22.0661 1.88281 22.6537 2.4704 22.6537 3.19521V7.13239H27.9032C28.6281 7.13239 29.2156 7.71997 29.2156 8.44478V15.0067H20.0289V12.382H12.1545V15.0067H2.96777V8.44478C2.96777 7.71997 3.55536 7.13239 4.28017 7.13239H9.52974ZM12.1545 4.5076V7.13239H20.0289V4.5076H12.1545Z" fill="white"/>
</svg>
