<svg width="19" height="19" viewBox="0 0 19 19" fill="none" xmlns="http://www.w3.org/2000/svg">
<path d="M5.54036 3.95964V1.58464C5.54036 1.14741 5.89481 0.792969 6.33203 0.792969H12.6654C13.1026 0.792969 13.457 1.14741 13.457 1.58464V3.95964H16.6237C17.0609 3.95964 17.4154 4.31408 17.4154 4.7513V15.8346C17.4154 16.2719 17.0609 16.6263 16.6237 16.6263H2.3737C1.93648 16.6263 1.58203 16.2719 1.58203 15.8346V4.7513C1.58203 4.31408 1.93648 3.95964 2.3737 3.95964H5.54036ZM15.832 10.293H3.16536V15.043H15.832V10.293ZM15.832 5.54297H3.16536V8.70963H5.54036V7.1263H7.1237V8.70963H11.8737V7.1263H13.457V8.70963H15.832V5.54297ZM7.1237 2.3763V3.95964H11.8737V2.3763H7.1237Z" fill="black"/>
</svg>
