<svg width="161" height="54" viewBox="0 0 161 54" fill="none" xmlns="http://www.w3.org/2000/svg">
<line x1="1.5" y1="27.5" x2="159.5" y2="27.5" stroke="#EEEFF2" stroke-linecap="round" stroke-dasharray="4 4"/>
<path d="M20.5 38.2963C11.5 38.2963 9 22.8633 1 22.8633V54H160V1C152.5 1 153 33.152 145 33.152C140 33.152 141 18.3621 138 18.3621H123.5C120 18.3621 119.5 38.2963 112 38.2963C108.5 38.2963 108.384 29.5074 105.5 25.4355C103.223 22.2203 99.716 22.3306 96.5 18.3621C93.6471 14.8416 95.5 7.4304 91 7.4304C83.5 7.4304 79 47.2989 69.5 47.2989C61 47.2989 63.5 15.5243 56.5 18.3621C52.4157 20.0179 52.7324 27.1681 48.5 28.0077C43.5 28.9995 43.6017 14.7352 37.5 13.2178C30.5 11.4769 29 38.2963 20.5 38.2963Z" fill="url(#paint0_linear_770_3679)"/>
<path d="M1 22.7222C9 22.7222 11.5 38.0556 20.5 38.0556C29 38.0556 30.5 11.4093 37.5 13.1389C43.6017 14.6465 43.5 28.8187 48.5 27.8333C52.7324 26.9992 52.4157 19.8951 56.5 18.25C63.5 15.4305 61 47 69.5 47C79 47 83.5 7.38889 91 7.38889C95.5 7.38889 93.6471 14.7522 96.5 18.25C99.716 22.1929 103.223 22.0833 105.5 25.2778C108.384 29.3234 108.5 38.0556 112 38.0556C119.5 38.0556 120 19.5 123.5 18.25C126 17.5 135 17.5 138 18.25C141.891 19.2227 140 32.9444 145 32.9444C153 32.9444 152.5 1 160 1" stroke="url(#paint1_radial_770_3679)" stroke-width="1.5" stroke-linecap="round"/>
<defs>
<linearGradient id="paint0_linear_770_3679" x1="80.5" y1="-59.5" x2="80.5" y2="43" gradientUnits="userSpaceOnUse">
<stop stop-color="#717CDD" stop-opacity="0.3"/>
<stop offset="1" stop-color="#161616" stop-opacity="0"/>
</linearGradient>
<radialGradient id="paint1_radial_770_3679" cx="0" cy="0" r="1" gradientUnits="userSpaceOnUse" gradientTransform="translate(79.928 24) scale(71.4928 180.032)">
<stop offset="0.026699" stop-color="#3F37C9"/>
<stop offset="1" stop-color="#4361EE"/>
</radialGradient>
</defs>
</svg>
