<svg width="20" height="19" viewBox="0 0 20 19" fill="none" xmlns="http://www.w3.org/2000/svg">
<path d="M6.27185 16.4845L2.08301 17.4154L3.01386 13.2265C2.41981 12.1156 2.08301 10.8465 2.08301 9.4987C2.08301 5.12644 5.62742 1.58203 9.99967 1.58203C14.3719 1.58203 17.9163 5.12644 17.9163 9.4987C17.9163 13.8709 14.3719 17.4154 9.99967 17.4154C8.65186 17.4154 7.38274 17.0786 6.27185 16.4845ZM6.5011 14.8116L7.01848 15.0883C7.92747 15.5743 8.94319 15.832 9.99967 15.832C13.4975 15.832 16.333 12.9965 16.333 9.4987C16.333 6.00089 13.4975 3.16536 9.99967 3.16536C6.50187 3.16536 3.66634 6.00089 3.66634 9.4987C3.66634 10.5552 3.92402 11.5709 4.4101 12.4799L4.68677 12.9972L4.16838 15.33L6.5011 14.8116Z" fill="black"/>
</svg>
