<svg width="20" height="18" viewBox="0 0 20 18" fill="none" xmlns="http://www.w3.org/2000/svg">
<path d="M17.5026 10.0345V15.666H18.3359V17.3327H1.66927V15.666H2.5026V10.0345C1.49761 9.36185 0.835938 8.21618 0.835938 6.91602C0.835938 6.22673 1.02296 5.56286 1.36362 4.99723L3.62369 1.08268C3.77255 0.824849 4.04765 0.666016 4.34537 0.666016H15.6599C15.9575 0.666016 16.2327 0.824849 16.3815 1.08268L18.6339 4.98412C18.9823 5.56286 19.1693 6.22673 19.1693 6.91602C19.1693 8.21618 18.5076 9.36185 17.5026 10.0345ZM15.8359 10.6431C15.6991 10.6583 15.5601 10.666 15.4193 10.666C14.37 10.666 13.4017 10.231 12.7109 9.51035C12.0202 10.231 11.0519 10.666 10.0026 10.666C8.95335 10.666 7.98502 10.231 7.29427 9.51035C6.60352 10.231 5.6352 10.666 4.58594 10.666C4.4451 10.666 4.30608 10.6583 4.16927 10.6431V15.666H15.8359V10.6431ZM4.82648 2.33268L2.79925 5.84369C2.60601 6.16471 2.5026 6.53177 2.5026 6.91602C2.5026 8.0666 3.43535 8.99935 4.58594 8.99935C5.44507 8.99935 6.2065 8.4746 6.52076 7.6906C6.80044 6.99287 7.7881 6.99287 8.06778 7.6906C8.38202 8.4746 9.14344 8.99935 10.0026 8.99935C10.8618 8.99935 11.6232 8.4746 11.9374 7.6906C12.2171 6.99287 13.2048 6.99287 13.4844 7.6906C13.7987 8.4746 14.5601 8.99935 15.4193 8.99935C16.5699 8.99935 17.5026 8.0666 17.5026 6.91602C17.5026 6.53177 17.3992 6.16471 17.1982 5.83057L15.1787 2.33268H4.82648Z" fill="#4F4F4F"/>
</svg>
