<svg width="20" height="20" viewBox="0 0 20 20" fill="none" xmlns="http://www.w3.org/2000/svg">
<path d="M14.1665 5.0013H18.3332V6.66797H16.6665V17.5013C16.6665 17.9616 16.2934 18.3346 15.8332 18.3346H4.1665C3.70627 18.3346 3.33317 17.9616 3.33317 17.5013V6.66797H1.6665V5.0013H5.83317V2.5013C5.83317 2.04107 6.20627 1.66797 6.6665 1.66797H13.3332C13.7934 1.66797 14.1665 2.04107 14.1665 2.5013V5.0013ZM14.9998 6.66797H4.99984V16.668H14.9998V6.66797ZM7.49984 9.16797H9.1665V14.168H7.49984V9.16797ZM10.8332 9.16797H12.4998V14.168H10.8332V9.16797ZM7.49984 3.33464V5.0013H12.4998V3.33464H7.49984Z" fill="#EB3173"/>
</svg>
