<svg width="17" height="16" viewBox="0 0 17 16" fill="none" xmlns="http://www.w3.org/2000/svg">
<path fill-rule="evenodd" clip-rule="evenodd" d="M11.5924 4.11109C11.0207 4.11109 10.5573 4.57537 10.5573 5.14811V5.97785H13.9214V9.14077H10.5055V6.00367H7.45195V9.14077H10.5055V10.4889C10.5055 12.9804 8.48961 15 6.00277 15C3.51598 15 1.5 12.9804 1.5 10.4889C1.5 7.99755 3.51598 5.97785 6.00277 5.97785H7.45195V5.14811C7.45195 2.85721 9.30568 1 11.5924 1H15.5V4.11109H11.5924ZM4.60537 10.4889C4.60537 9.71571 5.23104 9.08895 6.00277 9.08895H7.40022V10.4889C7.40022 11.2621 6.77456 11.8889 6.00277 11.8889C5.23104 11.8889 4.60537 11.2621 4.60537 10.4889Z" fill="#03DB80"/>
</svg>
