<svg width="1010" height="331" viewBox="0 0 1010 331" fill="none" xmlns="http://www.w3.org/2000/svg">
<path opacity="0.6" d="M1.00327 330.089L1009 330.089" stroke="#CFDBD5" stroke-width="0.985816" stroke-linecap="square"/>
<path d="M24.6711 274.883L24.6711 54.0601" stroke="#ECECEC" stroke-opacity="0.6" stroke-width="1.97163" stroke-linecap="square" stroke-dasharray="3.94 3.94"/>
<path d="M602.34 274.883L601.956 54.0601" stroke="#ECECEC" stroke-opacity="0.6" stroke-width="1.97163" stroke-linecap="square" stroke-dasharray="3.94 3.94"/>
<path d="M121.027 274.883L120.643 54.0601" stroke="#ECECEC" stroke-opacity="0.6" stroke-width="1.97163" stroke-linecap="square" stroke-dasharray="3.94 3.94"/>
<path d="M698.012 274.883L697.627 54.0601" stroke="#ECECEC" stroke-opacity="0.6" stroke-width="1.97163" stroke-linecap="square" stroke-dasharray="3.94 3.94"/>
<path d="M217.685 274.883L217.3 54.0601" stroke="#ECECEC" stroke-opacity="0.6" stroke-width="1.97163" stroke-linecap="square" stroke-dasharray="3.94 3.94"/>
<path d="M794.669 274.883L794.285 54.0601" stroke="#ECECEC" stroke-opacity="0.6" stroke-width="1.97163" stroke-linecap="square" stroke-dasharray="3.94 3.94"/>
<path d="M890.339 274.883L889.955 54.0601" stroke="#ECECEC" stroke-opacity="0.6" stroke-width="1.97163" stroke-linecap="square" stroke-dasharray="3.94 3.94"/>
<path d="M986.804 274.883V54.0601" stroke="#ECECEC" stroke-opacity="0.6" stroke-width="1.97163" stroke-linecap="square" stroke-dasharray="3.94 3.94"/>
<path d="M313.355 274.883L312.971 54.0601" stroke="#ECECEC" stroke-opacity="0.6" stroke-width="1.97163" stroke-linecap="square" stroke-dasharray="3.94 3.94"/>
<path d="M410.004 274.883L409.636 54.0601" stroke="#ECECEC" stroke-opacity="0.6" stroke-width="1.97163" stroke-linecap="square" stroke-dasharray="3.94 3.94"/>
<path d="M505.684 274.883L505.299 54.0601" stroke="#ECECEC" stroke-opacity="0.6" stroke-width="1.97163" stroke-linecap="square" stroke-dasharray="3.94 3.94"/>
<path d="M26.6549 305.745C24.6557 305.745 23.8631 304.527 23.8631 302.953V302.468H24.7503V303.036C24.7503 304.29 25.1407 304.929 26.6313 304.929C28.1218 304.929 28.5122 304.29 28.5122 303.036V297.701H29.3994V302.953C29.3994 304.527 28.6069 305.745 26.6549 305.745ZM32.345 305.745C31.2803 305.745 30.4759 305.201 30.4759 304.219C30.4759 303.202 31.233 302.752 32.5106 302.575L34.569 302.291V301.865C34.569 300.836 34.1313 300.422 33.0311 300.422C31.9664 300.422 31.4696 300.836 31.4696 301.77V301.948H30.6533V301.853C30.6533 300.635 31.5879 299.665 33.1021 299.665C34.6636 299.665 35.3734 300.67 35.3734 301.972V305.627H34.6045V304.55L34.5453 304.539C34.2022 305.213 33.457 305.745 32.345 305.745ZM31.304 304.16C31.304 304.763 31.6825 305.035 32.5816 305.035C33.5871 305.035 34.569 304.515 34.569 303.131V302.93L32.5816 303.214C31.647 303.344 31.304 303.533 31.304 304.16ZM37.5261 305.627H36.6744V299.783H37.4433V300.99H37.4788C37.7036 300.375 38.3661 299.665 39.5727 299.665C41.0751 299.665 41.7612 300.635 41.7612 302.043V305.627H40.9213V302.232C40.9213 300.966 40.5073 300.41 39.3124 300.41C38.1531 300.41 37.5261 300.954 37.5261 302.255V305.627Z" fill="#5D5D5B"/>
<path d="M112.011 305.627H111.171V297.701H116.471V298.47H112.011V301.487H116.293V302.267H112.011V305.627ZM119.869 305.745C118.071 305.745 117.136 304.479 117.136 302.705C117.136 300.931 118.189 299.665 119.857 299.665C121.265 299.665 122.424 300.516 122.424 302.244C122.424 302.516 122.4 302.776 122.365 302.942H117.941C117.976 304.231 118.485 304.988 119.881 304.988C121.064 304.988 121.537 304.456 121.537 303.746V303.675H122.377V303.758C122.377 304.882 121.359 305.745 119.869 305.745ZM119.833 300.398C118.532 300.398 118.012 301.143 117.941 302.326H121.62C121.667 300.942 120.981 300.398 119.833 300.398ZM124.299 305.627H123.53V297.701H124.382V300.895C124.642 300.256 125.364 299.665 126.488 299.665C128.085 299.665 128.948 300.86 128.948 302.705C128.948 304.55 128.037 305.745 126.393 305.745C125.293 305.745 124.595 305.237 124.335 304.503H124.299V305.627ZM124.382 303.214C124.382 304.408 125.092 305.012 126.251 305.012C127.399 305.012 128.097 304.491 128.097 302.705C128.097 300.919 127.387 300.398 126.251 300.398C125.092 300.398 124.382 301.002 124.382 302.208V303.214Z" fill="#5D5D5B"/>
<path d="M208.621 305.627H207.781V297.701H208.964L211.212 302.622L211.921 304.338H211.992L212.702 302.622L214.926 297.701H216.121V305.627H215.269V300.138L215.305 298.99H215.234L214.749 300.138L212.454 305.154H211.436L209.141 300.138L208.656 298.99H208.585L208.621 300.138V305.627ZM219.115 305.745C218.05 305.745 217.246 305.201 217.246 304.219C217.246 303.202 218.003 302.752 219.28 302.575L221.339 302.291V301.865C221.339 300.836 220.901 300.422 219.801 300.422C218.736 300.422 218.239 300.836 218.239 301.77V301.948H217.423V301.853C217.423 300.635 218.358 299.665 219.872 299.665C221.433 299.665 222.143 300.67 222.143 301.972V305.627H221.374V304.55L221.315 304.539C220.972 305.213 220.227 305.745 219.115 305.745ZM218.074 304.16C218.074 304.763 218.452 305.035 219.351 305.035C220.357 305.035 221.339 304.515 221.339 303.131V302.93L219.351 303.214C218.417 303.344 218.074 303.533 218.074 304.16ZM224.296 305.627H223.444V299.712H224.213V300.694H224.272C224.462 300.15 225.029 299.665 225.893 299.665C227.1 299.665 227.561 300.528 227.561 301.534V301.865H226.709V301.664C226.709 300.753 226.425 300.398 225.585 300.398C224.675 300.398 224.296 300.812 224.296 301.759V305.627Z" fill="#5D5D5B"/>
<path d="M305.684 305.627H304.797L308.003 297.701H309.209L312.415 305.627H311.504L310.546 303.308H306.631L305.684 305.627ZM308.097 299.712L306.938 302.539H310.227L309.068 299.712L308.618 298.505H308.559L308.097 299.712ZM313.978 307.685H313.126V299.783H313.895V300.919H313.931C314.191 300.173 314.889 299.665 315.989 299.665C317.634 299.665 318.544 300.86 318.544 302.717C318.544 304.55 317.681 305.745 316.084 305.745C314.96 305.745 314.238 305.154 313.978 304.515V307.685ZM313.978 303.214C313.978 304.408 314.688 305.012 315.847 305.012C316.983 305.012 317.693 304.491 317.693 302.717C317.693 300.919 316.995 300.398 315.847 300.398C314.688 300.398 313.978 301.002 313.978 302.208V303.214ZM320.424 305.627H319.573V299.712H320.342V300.694H320.401C320.59 300.15 321.158 299.665 322.022 299.665C323.228 299.665 323.69 300.528 323.69 301.534V301.865H322.838V301.664C322.838 300.753 322.554 300.398 321.714 300.398C320.803 300.398 320.424 300.812 320.424 301.759V305.627Z" fill="#5D5D5B"/>
<path d="M403.236 305.745C401.237 305.745 400.445 304.527 400.445 302.953V302.468H401.332V303.036C401.332 304.29 401.722 304.929 403.213 304.929C404.703 304.929 405.094 304.29 405.094 303.036V297.701H405.981V302.953C405.981 304.527 405.188 305.745 403.236 305.745ZM409.564 305.745C408.038 305.745 407.329 304.692 407.329 303.296V299.783H408.18V303.178C408.18 304.444 408.689 305 409.837 305C410.913 305 411.647 304.432 411.647 303.06V299.783H412.486V305.627H411.718V304.338H411.682C411.445 305.012 410.783 305.745 409.564 305.745ZM414.674 305.627H413.822V299.783H414.591V300.99H414.626C414.851 300.375 415.514 299.665 416.72 299.665C418.223 299.665 418.909 300.635 418.909 302.043V305.627H418.069V302.232C418.069 300.966 417.655 300.41 416.46 300.41C415.301 300.41 414.674 300.954 414.674 302.255V305.627Z" fill="#5D5D5B"/>
<path d="M498.861 305.745C496.861 305.745 496.069 304.527 496.069 302.953V302.468H496.956V303.036C496.956 304.29 497.346 304.929 498.837 304.929C500.327 304.929 500.718 304.29 500.718 303.036V297.701H501.605V302.953C501.605 304.527 500.812 305.745 498.861 305.745ZM505.189 305.745C503.662 305.745 502.953 304.692 502.953 303.296V299.783H503.804V303.178C503.804 304.444 504.313 305 505.461 305C506.537 305 507.271 304.432 507.271 303.06V299.783H508.11V305.627H507.342V304.338H507.306C507.069 305.012 506.407 305.745 505.189 305.745ZM510.298 305.627H509.446V297.701H510.298V305.627Z" fill="black"/>
<path d="M587.628 305.627H586.74L589.946 297.701H591.153L594.359 305.627H593.448L592.49 303.308H588.574L587.628 305.627ZM590.041 299.712L588.882 302.539H592.17L591.011 299.712L590.561 298.505H590.502L590.041 299.712ZM597.27 305.745C595.744 305.745 595.034 304.692 595.034 303.296V299.783H595.886V303.178C595.886 304.444 596.395 305 597.542 305C598.619 305 599.352 304.432 599.352 303.06V299.783H600.192V305.627H599.423V304.338H599.388C599.151 305.012 598.489 305.745 597.27 305.745ZM603.8 305.106C602.191 305.106 601.268 304.042 601.268 302.386C601.268 300.729 602.179 299.665 603.811 299.665C604.841 299.665 605.621 300.173 605.882 300.919H605.929V299.783H606.686V305.379C606.686 306.964 605.669 307.756 604.131 307.756C602.64 307.756 601.587 306.976 601.587 305.627H602.427C602.427 306.585 602.912 306.999 604.143 306.999C605.397 306.999 605.834 306.55 605.834 305.379V303.888H605.822C605.55 304.562 604.817 305.106 603.8 305.106ZM602.12 302.386C602.12 303.935 602.865 304.373 604.001 304.373C605.053 304.373 605.834 303.77 605.834 302.563V302.208C605.834 301.002 605.042 300.398 603.953 300.398C602.841 300.398 602.12 300.848 602.12 302.386Z" fill="black"/>
<path d="M687.897 305.745C685.696 305.745 684.738 304.586 684.738 303.226V303.048H685.578V303.178C685.578 304.278 686.158 304.964 687.92 304.964C689.234 304.964 689.849 304.527 689.849 303.616C689.849 302.729 689.446 302.397 688.252 302.137L686.879 301.83C685.637 301.569 684.786 301.002 684.786 299.724C684.786 298.576 685.732 297.583 687.613 297.583C689.671 297.583 690.57 298.837 690.57 300.126V300.28H689.73V300.15C689.73 299.061 689.163 298.363 687.601 298.363C686.288 298.363 685.637 298.801 685.637 299.665C685.637 300.564 686.075 300.824 687.234 301.096L688.607 301.416C689.92 301.711 690.7 302.326 690.7 303.569C690.7 304.775 689.766 305.745 687.897 305.745ZM694.214 305.745C692.416 305.745 691.482 304.479 691.482 302.705C691.482 300.931 692.534 299.665 694.202 299.665C695.61 299.665 696.77 300.516 696.77 302.244C696.77 302.516 696.746 302.776 696.71 302.942H692.286C692.322 304.231 692.83 304.988 694.226 304.988C695.409 304.988 695.882 304.456 695.882 303.746V303.675H696.722V303.758C696.722 304.882 695.705 305.745 694.214 305.745ZM694.179 300.398C692.878 300.398 692.357 301.143 692.286 302.326H695.965C696.012 300.942 695.326 300.398 694.179 300.398ZM698.716 307.685H697.864V299.783H698.633V300.919H698.669C698.929 300.173 699.627 299.665 700.727 299.665C702.371 299.665 703.282 300.86 703.282 302.717C703.282 304.55 702.419 305.745 700.822 305.745C699.698 305.745 698.976 305.154 698.716 304.515V307.685ZM698.716 303.214C698.716 304.408 699.426 305.012 700.585 305.012C701.721 305.012 702.43 304.491 702.43 302.717C702.43 300.919 701.732 300.398 700.585 300.398C699.426 300.398 698.716 301.002 698.716 302.208V303.214Z" fill="black"/>
<path d="M785.836 305.745C783.659 305.745 782.216 304.136 782.216 301.664C782.216 299.192 783.659 297.583 785.836 297.583C788 297.583 789.444 299.192 789.444 301.664C789.444 304.136 788 305.745 785.836 305.745ZM785.836 304.929C787.693 304.929 788.556 303.864 788.556 301.664C788.556 299.464 787.693 298.399 785.836 298.399C783.978 298.399 783.103 299.464 783.103 301.664C783.103 303.864 783.978 304.929 785.836 304.929ZM793.082 305.757C791.354 305.757 790.313 304.491 790.313 302.717C790.313 300.931 791.354 299.665 793.082 299.665C794.572 299.665 795.578 300.623 795.578 301.995V302.078H794.738V302.007C794.738 300.99 794.194 300.434 793.046 300.434C791.709 300.434 791.153 301.274 791.153 302.717C791.153 304.148 791.709 304.988 793.046 304.988C794.194 304.988 794.738 304.432 794.738 303.415V303.344H795.578V303.427C795.578 304.799 794.572 305.757 793.082 305.757ZM798.746 305.639C797.669 305.639 797.042 305.213 797.042 303.971V300.516H796.06V299.783H797.054L797.255 298.292H797.894V299.783H799.74V300.516H797.894V304.018C797.894 304.704 798.213 304.858 798.971 304.858H799.74V305.544C799.538 305.58 799.172 305.639 798.746 305.639Z" fill="black"/>
<path d="M878.975 305.627H878.135V297.701H879.046L882.607 302.977L883.447 304.219H883.518V297.701H884.37V305.627H883.447L879.863 300.351L879.034 299.132H878.975V305.627ZM888.245 305.745C886.53 305.745 885.406 304.479 885.406 302.705C885.406 300.931 886.53 299.665 888.245 299.665C889.949 299.665 891.037 300.931 891.037 302.705C891.037 304.479 889.949 305.745 888.245 305.745ZM888.245 304.988C889.653 304.988 890.209 304.16 890.209 302.705C890.209 301.25 889.653 300.434 888.245 300.434C886.814 300.434 886.246 301.25 886.246 302.705C886.246 304.16 886.814 304.988 888.245 304.988ZM894.698 305.627H893.645L891.255 299.783H892.178L894.154 304.799H894.213L896.177 299.783H897.087L894.698 305.627Z" fill="black"/>
<path d="M967.561 305.627H964.888V297.701H967.561C969.951 297.701 971.453 299.239 971.453 301.664C971.453 304.089 969.951 305.627 967.561 305.627ZM967.561 298.47H965.728V304.858H967.561C969.667 304.858 970.566 303.817 970.566 301.664C970.566 299.511 969.667 298.47 967.561 298.47ZM975.041 305.745C973.243 305.745 972.309 304.479 972.309 302.705C972.309 300.931 973.361 299.665 975.029 299.665C976.437 299.665 977.597 300.516 977.597 302.244C977.597 302.516 977.573 302.776 977.537 302.942H973.113C973.149 304.231 973.657 304.988 975.053 304.988C976.236 304.988 976.709 304.456 976.709 303.746V303.675H977.549V303.758C977.549 304.882 976.532 305.745 975.041 305.745ZM975.006 300.398C973.705 300.398 973.184 301.143 973.113 302.326H976.792C976.839 300.942 976.153 300.398 975.006 300.398ZM981.281 305.757C979.553 305.757 978.512 304.491 978.512 302.717C978.512 300.931 979.553 299.665 981.281 299.665C982.771 299.665 983.777 300.623 983.777 301.995V302.078H982.937V302.007C982.937 300.99 982.393 300.434 981.245 300.434C979.908 300.434 979.352 301.274 979.352 302.717C979.352 304.148 979.908 304.988 981.245 304.988C982.393 304.988 982.937 304.432 982.937 303.415V303.344H983.777V303.427C983.777 304.799 982.771 305.757 981.281 305.757Z" fill="black"/>
<rect x="24.876" y="5.26367" width="11.8298" height="11.8298" rx="5.9149" fill="black"/>
<path d="M50.2023 15.6777H48.7773L44.8323 5.62773H46.0323L49.4823 14.4777H49.5573L52.9773 5.62773H54.1473L50.2023 15.6777ZM56.0031 7.27773H54.9381V5.62773H56.0031V7.27773ZM56.0031 15.6777H54.9381V8.17773H56.0031V15.6777ZM60.7262 15.8277C58.4462 15.8277 57.2612 14.2227 57.2612 11.9727C57.2612 9.72273 58.5962 8.11773 60.7112 8.11773C62.4962 8.11773 63.9662 9.19773 63.9662 11.3877C63.9662 11.7327 63.9362 12.0627 63.8912 12.2727H58.2812C58.3262 13.9077 58.9712 14.8677 60.7412 14.8677C62.2412 14.8677 62.8412 14.1927 62.8412 13.2927V13.2027H63.9062V13.3077C63.9062 14.7327 62.6162 15.8277 60.7262 15.8277ZM60.6812 9.04773C59.0312 9.04773 58.3712 9.99273 58.2812 11.4927H62.9462C63.0062 9.73773 62.1362 9.04773 60.6812 9.04773ZM67.7165 15.6777H66.3065L64.4015 8.26773H65.5415L66.7115 13.0977L67.0115 14.7027H67.1015L67.5965 13.0977L69.2915 8.26773H70.7165L72.4415 13.0977L72.9065 14.7027H72.9965L73.2965 13.0977L74.4665 8.26773H75.5765L73.6715 15.6777H72.2615L70.5965 10.9977L70.0415 9.24273H69.9515L69.3965 10.9977L67.7165 15.6777ZM79.487 15.8277C77.462 15.8277 76.352 14.9727 76.352 13.2477V13.2177H77.402V13.3977C77.402 14.4177 77.822 14.9127 79.502 14.9127C80.882 14.9127 81.242 14.5227 81.242 13.7727C81.242 13.0227 80.777 12.7527 79.652 12.5427L78.422 12.3327C77.222 12.1077 76.352 11.5527 76.352 10.2477C76.352 8.97273 77.432 8.11773 79.187 8.11773C80.882 8.11773 82.127 8.98773 82.127 10.6527V10.7277H81.092V10.6077C81.092 9.72273 80.747 9.04773 79.157 9.04773C77.807 9.04773 77.387 9.48273 77.387 10.2327C77.387 10.9827 77.762 11.2377 78.872 11.4477L80.132 11.6877C81.422 11.9277 82.277 12.4977 82.277 13.7277C82.277 15.0477 81.197 15.8277 79.487 15.8277Z" fill="black"/>
<rect x="111.656" y="5.26367" width="11.8298" height="11.8298" rx="5.9149" fill="#E0E0E0"/>
<path d="M136.098 15.8277C133.308 15.8277 132.093 14.3577 132.093 12.6327V12.4077H133.158V12.5727C133.158 13.9677 133.893 14.8377 136.128 14.8377C137.793 14.8377 138.573 14.2827 138.573 13.1277C138.573 12.0027 138.063 11.5827 136.548 11.2527L134.808 10.8627C133.233 10.5327 132.153 9.81273 132.153 8.19273C132.153 6.73773 133.353 5.47773 135.738 5.47773C138.348 5.47773 139.488 7.06773 139.488 8.70273V8.89773H138.423V8.73273C138.423 7.35273 137.703 6.46773 135.723 6.46773C134.058 6.46773 133.233 7.02273 133.233 8.11773C133.233 9.25773 133.788 9.58773 135.258 9.93273L136.998 10.3377C138.663 10.7127 139.653 11.4927 139.653 13.0677C139.653 14.5977 138.468 15.8277 136.098 15.8277ZM142.997 15.8277C141.647 15.8277 140.627 15.1377 140.627 13.8927C140.627 12.6027 141.587 12.0327 143.207 11.8077L145.817 11.4477V10.9077C145.817 9.60273 145.262 9.07773 143.867 9.07773C142.517 9.07773 141.887 9.60273 141.887 10.7877V11.0127H140.852V10.8927C140.852 9.34773 142.037 8.11773 143.957 8.11773C145.937 8.11773 146.837 9.39273 146.837 11.0427V15.6777H145.862V14.3127L145.787 14.2977C145.352 15.1527 144.407 15.8277 142.997 15.8277ZM141.677 13.8177C141.677 14.5827 142.157 14.9277 143.297 14.9277C144.572 14.9277 145.817 14.2677 145.817 12.5127V12.2577L143.297 12.6177C142.112 12.7827 141.677 13.0227 141.677 13.8177ZM149.567 15.6777H148.487V5.62773H149.567V15.6777ZM154.347 15.8277C152.067 15.8277 150.882 14.2227 150.882 11.9727C150.882 9.72273 152.217 8.11773 154.332 8.11773C156.117 8.11773 157.587 9.19773 157.587 11.3877C157.587 11.7327 157.557 12.0627 157.512 12.2727H151.902C151.947 13.9077 152.592 14.8677 154.362 14.8677C155.862 14.8677 156.462 14.1927 156.462 13.2927V13.2027H157.527V13.3077C157.527 14.7327 156.237 15.8277 154.347 15.8277ZM154.302 9.04773C152.652 9.04773 151.992 9.99273 151.902 11.4927H156.567C156.627 9.73773 155.757 9.04773 154.302 9.04773ZM162.048 15.8277C160.023 15.8277 158.913 14.9727 158.913 13.2477V13.2177H159.963V13.3977C159.963 14.4177 160.383 14.9127 162.063 14.9127C163.443 14.9127 163.803 14.5227 163.803 13.7727C163.803 13.0227 163.338 12.7527 162.213 12.5427L160.983 12.3327C159.783 12.1077 158.913 11.5527 158.913 10.2477C158.913 8.97273 159.993 8.11773 161.748 8.11773C163.443 8.11773 164.688 8.98773 164.688 10.6527V10.7277H163.653V10.6077C163.653 9.72273 163.308 9.04773 161.718 9.04773C160.368 9.04773 159.948 9.48273 159.948 10.2327C159.948 10.9827 160.323 11.2377 161.433 11.4477L162.693 11.6877C163.983 11.9277 164.838 12.4977 164.838 13.7277C164.838 15.0477 163.758 15.8277 162.048 15.8277Z" fill="black"/>
</svg>
