<svg width="16" height="17" viewBox="0 0 16 17" fill="none" xmlns="http://www.w3.org/2000/svg">
<path d="M13.5 2.5L8.5 6.5L9.42979 4.14267L13.5 2.5Z" fill="#E17726" stroke="#E17726" stroke-width="0.25" stroke-linecap="round" stroke-linejoin="round"/>
<path d="M2.5 2.5L7.5 6.5L6.60679 4.12748L2.5 2.5Z" fill="#E27625" stroke="#E27625" stroke-width="0.25" stroke-linecap="round" stroke-linejoin="round"/>
<path d="M11.9521 11.5L10.5 13.6646L13.6093 14.5L14.5 11.5473L11.9521 11.5Z" fill="#E27625" stroke="#E27625" stroke-width="0.25" stroke-linecap="round" stroke-linejoin="round"/>
<path d="M1.5 11.5473L2.38768 14.5L5.5 13.6646L4.04938 11.5L1.5 11.5473Z" fill="#E27625" stroke="#E27625" stroke-width="0.25" stroke-linecap="round" stroke-linejoin="round"/>
<path d="M5.34209 8.19267L4.5 9.37317L7.5 9.5L7.40001 6.5L5.34209 8.19267Z" fill="#E27625" stroke="#E27625" stroke-width="0.25" stroke-linecap="round" stroke-linejoin="round"/>
<path d="M10.6579 8.20739L8.56843 6.5L8.5 9.5L11.5 9.3746L10.6579 8.20739Z" fill="#E27625" stroke="#E27625" stroke-width="0.25" stroke-linecap="round" stroke-linejoin="round"/>
<path d="M5.5 13.5L7.5 12.6629L5.77827 11.5L5.5 13.5Z" fill="#E27625" stroke="#E27625" stroke-width="0.25" stroke-linecap="round" stroke-linejoin="round"/>
<path d="M8.5 12.6629L10.5 13.5L10.2267 11.5L8.5 12.6629Z" fill="#E27625" stroke="#E27625" stroke-width="0.25" stroke-linecap="round" stroke-linejoin="round"/>
<path d="M10.5 13.547L8.5 12.5L8.66277 13.9044L8.64532 14.5L10.5 13.547Z" fill="#D5BFB2" stroke="#D5BFB2" stroke-width="0.25" stroke-linecap="round" stroke-linejoin="round"/>
<path d="M5.5 13.547L7.35511 14.5L7.3435 13.9044L7.5 12.5L5.5 13.547Z" fill="#D5BFB2" stroke="#D5BFB2" stroke-width="0.25" stroke-linecap="round" stroke-linejoin="round"/>
<path d="M6.5 10.5L5.5 10.0254L6.20628 9.5L6.5 10.5Z" fill="#233447" stroke="#233447" stroke-width="0.25" stroke-linecap="round" stroke-linejoin="round"/>
<path d="M9.5 10.5L9.79269 9.5L10.5 10.0254L9.5 10.5Z" fill="#233447" stroke="#233447" stroke-width="0.25" stroke-linecap="round" stroke-linejoin="round"/>
<path d="M5.18552 13.5L5.5 11.5L3.5 11.5437L5.18552 13.5Z" fill="#CC6228" stroke="#CC6228" stroke-width="0.25" stroke-linecap="round" stroke-linejoin="round"/>
<path d="M10.5 11.5L10.8082 13.5L12.5 11.5437L10.5 11.5Z" fill="#CC6228" stroke="#CC6228" stroke-width="0.25" stroke-linecap="round" stroke-linejoin="round"/>
<path d="M11.5 8.5L8.5 8.66301L8.77894 10.5L9.22106 9.39027L10.2895 9.97334L11.5 8.5Z" fill="#CC6228" stroke="#CC6228" stroke-width="0.25" stroke-linecap="round" stroke-linejoin="round"/>
<path d="M5.71579 9.97334L6.77894 9.39027L7.22107 10.5L7.5 8.66301L4.5 8.5L5.71579 9.97334Z" fill="#CC6228" stroke="#CC6228" stroke-width="0.25" stroke-linecap="round" stroke-linejoin="round"/>
<path d="M4.5 9.5L5.5 11.5L5.4665 10.5064L4.5 9.5Z" fill="#E27525" stroke="#E27525" stroke-width="0.25" stroke-linecap="round" stroke-linejoin="round"/>
<path d="M10.5377 10.5064L10.5 11.5L11.5 9.5L10.5377 10.5064Z" fill="#E27525" stroke="#E27525" stroke-width="0.25" stroke-linecap="round" stroke-linejoin="round"/>
<path d="M7.52022 9.5L7.4502 10.8756L7.53871 12.5L7.55853 10.3592L7.52022 9.5Z" fill="#E27525" stroke="#E27525" stroke-width="0.25" stroke-linecap="round" stroke-linejoin="round"/>
<path d="M8.48765 9.5L8.4502 10.3545L8.46892 12.5L8.55853 10.8756L8.48765 9.5Z" fill="#E27525" stroke="#E27525" stroke-width="0.25" stroke-linecap="round" stroke-linejoin="round"/>
<path d="M8.87853 10.8621L8.5 12.3534L8.7712 12.5L10.4492 11.5L10.5 10.5L8.87853 10.8621Z" fill="#F5841F" stroke="#F5841F" stroke-width="0.25" stroke-linecap="round" stroke-linejoin="round"/>
<path d="M5.5 10.5L5.54536 11.5L7.22804 12.5L7.5 12.3534L7.1204 10.8621L5.5 10.5Z" fill="#F5841F" stroke="#F5841F" stroke-width="0.25" stroke-linecap="round" stroke-linejoin="round"/>
<path d="M9.00518 14.1104L9.01921 13.7289L8.8974 13.6406H7.10733L6.99017 13.7289L6.99955 14.1104L5.5 13.5L6.02483 13.8695L7.08857 14.5H8.91143L9.97985 13.8695L10.5 13.5L9.00518 14.1104Z" fill="#C0AC9D" stroke="#C0AC9D" stroke-width="0.25" stroke-linecap="round" stroke-linejoin="round"/>
<path d="M8.37065 12.6318L8.14894 12.5H6.84641L6.62472 12.6318L6.5 13.5L6.61548 13.4147H8.3799L8.5 13.5L8.37065 12.6318Z" fill="#161616" stroke="#161616" stroke-width="0.25" stroke-linecap="round" stroke-linejoin="round"/>
<path d="M14.0384 6.50165L14.5 4.42821L13.805 2.5L8.5 6.13106L10.5416 7.72369L13.4249 8.5L14.0602 7.81386L13.7833 7.62853L14.2231 7.25794L13.8864 7.01753L14.3263 6.707L14.0384 6.50165Z" fill="#763E1A" stroke="#763E1A" stroke-width="0.25" stroke-linecap="round" stroke-linejoin="round"/>
<path d="M1.5 4.42821L1.96697 6.50165L1.66833 6.707L2.11358 7.01753L1.77692 7.25794L2.21674 7.62853L1.93982 7.81386L2.57512 8.5L5.4584 7.72369L7.5 6.13106L2.19502 2.5L1.5 4.42821Z" fill="#763E1A" stroke="#763E1A" stroke-width="0.25" stroke-linecap="round" stroke-linejoin="round"/>
<path d="M13.5965 8.37445L10.901 7.5L11.7132 8.86532L10.5 11.5L12.1041 11.4774H14.5L13.5965 8.37445Z" fill="#F5841F" stroke="#F5841F" stroke-width="0.25" stroke-linecap="round" stroke-linejoin="round"/>
<path d="M5.09847 7.5L2.39962 8.37445L1.5 11.4774H3.89391L5.5 11.5L4.28527 8.86532L5.09847 7.5Z" fill="#F5841F" stroke="#F5841F" stroke-width="0.25" stroke-linecap="round" stroke-linejoin="round"/>
<path d="M8.67785 9.38672L8.82654 6.53165L9.5 4.5H6.5L7.17346 6.53165L7.32215 9.38672L7.379 10.2832L7.38338 12.5H8.61662L8.621 10.2832L8.67785 9.38672Z" fill="#F5841F" stroke="#F5841F" stroke-width="0.25" stroke-linecap="round" stroke-linejoin="round"/>
</svg>
