<svg width="20" height="20" viewBox="0 0 20 20" fill="none" xmlns="http://www.w3.org/2000/svg">
<path d="M7.50065 9.9987C8.42115 9.9987 9.16732 9.25253 9.16732 8.33203C9.16732 7.41156 8.42115 6.66536 7.50065 6.66536C6.58018 6.66536 5.83398 7.41156 5.83398 8.33203C5.83398 9.25253 6.58018 9.9987 7.50065 9.9987ZM17.9173 5.41536L10.0007 0.832031L2.08398 5.41536V14.582L10.0007 19.1654L17.9173 14.582V5.41536ZM10.0007 2.75786L16.2507 6.37629V12.1102L12.4489 9.8292L5.80623 14.8112L3.75065 13.6211V6.37629L10.0007 2.75786ZM10.0007 17.2395L7.37388 15.7188L12.5524 11.8349L15.8836 13.8336L10.0007 17.2395Z" fill="black"/>
</svg>
