<svg width="15" height="13" viewBox="0 0 15 13" fill="none" xmlns="http://www.w3.org/2000/svg">
<path d="M9.07118 2.12469L10.7003 0.495561C10.9444 0.25148 11.3401 0.25148 11.5842 0.495561L14.2359 3.14721C14.4799 3.39129 14.4799 3.78702 14.2359 4.03109L11.8745 6.39245V12.1247C11.8745 12.4699 11.5947 12.7497 11.2495 12.7497H3.74949C3.40432 12.7497 3.12449 12.4699 3.12449 12.1247V6.39245L0.763138 4.03109C0.519058 3.78702 0.519058 3.39129 0.763138 3.14721L3.41479 0.495561C3.65886 0.25148 4.05459 0.25148 4.29867 0.495561L5.92779 2.12469H9.07118ZM9.58893 3.37469H5.41003L3.85673 1.82139L2.08896 3.58915L4.37449 5.8747V11.4997H10.6245V5.8747L12.9101 3.58915L11.1422 1.82139L9.58893 3.37469Z" fill="#828282"/>
</svg>
