<svg width="17" height="16" viewBox="0 0 17 16" fill="none" xmlns="http://www.w3.org/2000/svg">
<path d="M9.60556 16C8.535 16 7.75534 15.7251 7.2654 15.1752C6.77609 14.6256 6.53112 14.0328 6.53112 13.3976C6.53112 13.1654 6.57371 12.97 6.65913 12.8111C6.7425 12.6545 6.8634 12.5247 7.00948 12.4353C7.15745 12.3436 7.33954 12.2979 7.55608 12.2979C7.7725 12.2979 7.95439 12.3436 8.10257 12.4353C8.25054 12.5268 8.36734 12.6523 8.45265 12.8111C8.53806 12.97 8.58071 13.1654 8.58071 13.3976C8.58071 13.6787 8.51815 13.9076 8.39293 14.0849C8.2675 14.2621 8.11952 14.378 7.9487 14.4332C8.09699 14.6529 8.33037 14.8086 8.64917 14.9003C8.96797 14.9982 9.28676 15.047 9.60556 15.047C10.0496 15.047 10.4509 14.9187 10.8098 14.6622C11.1684 14.4054 11.4332 14.0268 11.6041 13.5259C11.7749 13.025 11.8603 12.4567 11.8603 11.8213C11.8603 11.131 11.7662 10.5412 11.5785 10.0527C11.3961 9.55787 11.1257 9.19131 10.767 8.95292C10.4192 8.7181 10.0164 8.59422 9.60556 8.59573C9.33215 8.59573 8.99082 8.71788 8.58071 8.9623L7.82916 9.36549V8.9623L11.2111 4.12379H6.53112V9.14531C6.53112 9.56089 6.61654 9.903 6.78736 10.1719C6.95819 10.4407 7.22001 10.5751 7.57324 10.5751C7.84612 10.5751 8.10826 10.4774 8.35881 10.2816C8.61104 10.0843 8.83042 9.84279 9.00778 9.56724C9.03052 9.51188 9.05906 9.47224 9.09319 9.44778C9.12384 9.4187 9.16322 9.40254 9.20419 9.40211C9.26675 9.40211 9.34068 9.43572 9.42631 9.50304C9.50603 9.60053 9.54584 9.71363 9.54584 9.84193C9.53605 9.92832 9.52173 10.014 9.50298 10.0986C9.30962 10.5629 9.0419 10.9172 8.70025 11.1615C8.36765 11.403 7.97471 11.5307 7.57324 11.5282C6.5596 11.5282 5.85915 11.3142 5.47211 10.8868C5.08507 10.4589 4.89143 9.87844 4.89143 9.14563V4.12379H2.5V3.18891H4.89143V1.06314L4.34486 0.47616V0H5.93326L6.53089 0.329727V3.18891L12.7141 3.17073L13.3292 3.83042L9.53731 7.89922C9.76691 7.80098 10.0086 7.73926 10.2547 7.71588C10.6646 7.71588 11.1257 7.85645 11.6382 8.13749C12.1564 8.41239 12.5549 8.79135 12.8337 9.2736C13.1127 9.75026 13.292 10.2085 13.3718 10.6483C13.4572 11.0883 13.5 11.4791 13.5 11.8213C13.5 12.6034 13.3461 13.3302 13.0388 14.0026C12.7314 14.6743 12.2645 15.1752 11.6382 15.5052C11.0119 15.8352 10.3343 16 9.60556 16Z" fill="#2C7DF7"/>
</svg>
