<svg width="20" height="20" viewBox="0 0 20 20" fill="none" xmlns="http://www.w3.org/2000/svg">
<g clip-path="url(#clip0_781_3019)">
<path d="M10.0003 18.3346C5.39783 18.3346 1.66699 14.6038 1.66699 10.0013C1.66699 5.3988 5.39783 1.66797 10.0003 1.66797C14.6028 1.66797 18.3337 5.3988 18.3337 10.0013C18.3337 14.6038 14.6028 18.3346 10.0003 18.3346ZM10.0003 16.668C11.7684 16.668 13.4641 15.9656 14.7144 14.7153C15.9646 13.4651 16.667 11.7694 16.667 10.0013C16.667 8.23319 15.9646 6.5375 14.7144 5.28726C13.4641 4.03701 11.7684 3.33464 10.0003 3.33464C8.23222 3.33464 6.53652 4.03701 5.28628 5.28726C4.03604 6.5375 3.33366 8.23319 3.33366 10.0013C3.33366 11.7694 4.03604 13.4651 5.28628 14.7153C6.53652 15.9656 8.23222 16.668 10.0003 16.668ZM9.16699 5.83464H10.8337V7.5013H9.16699V5.83464ZM9.16699 9.16797H10.8337V14.168H9.16699V9.16797Z" fill="#1D40C8"/>
</g>
<defs>
<clipPath id="clip0_781_3019">
<rect width="20" height="20" fill="white"/>
</clipPath>
</defs>
</svg>
