<svg width="20" height="20" viewBox="0 0 20 20" fill="none" xmlns="http://www.w3.org/2000/svg">
<path d="M10.0013 18.3346C5.39893 18.3346 1.66797 14.6036 1.66797 10.0013C1.66797 5.39893 5.39893 1.66797 10.0013 1.66797C14.6036 1.66797 18.3346 5.39893 18.3346 10.0013C18.3346 14.6036 14.6036 18.3346 10.0013 18.3346ZM8.09299 16.3908C7.29083 14.6896 6.79907 12.8131 6.69073 10.8346H3.38621C3.7163 13.4817 5.59829 15.6469 8.09299 16.3908ZM8.36022 10.8346C8.48555 12.867 9.06614 14.7761 10.0013 16.4613C10.9365 14.7761 11.5171 12.867 11.6424 10.8346H8.36022ZM16.6164 10.8346H13.3119C13.2036 12.8131 12.7118 14.6896 11.9096 16.3908C14.4043 15.6469 16.2863 13.4817 16.6164 10.8346ZM3.38621 9.16797H6.69073C6.79907 7.18944 7.29083 5.31303 8.09299 3.61177C5.59829 4.35574 3.7163 6.52089 3.38621 9.16797ZM8.36022 9.16797H11.6424C11.5171 7.13565 10.9365 5.22651 10.0013 3.54129C9.06614 5.22651 8.48555 7.13565 8.36022 9.16797ZM11.9096 3.61177C12.7118 5.31303 13.2036 7.18944 13.3119 9.16797H16.6164C16.2863 6.52089 14.4043 4.35574 11.9096 3.61177Z" fill="#BDBDBD"/>
</svg>
