<svg width="21" height="20" viewBox="0 0 21 20" fill="none" xmlns="http://www.w3.org/2000/svg">
<g clip-path="url(#clip0_785_3144)">
<path d="M17.7615 6.77212L17.556 7.24352C17.4057 7.58863 16.9283 7.58863 16.7779 7.24352L16.5725 6.77212C16.2062 5.93159 15.5466 5.26237 14.7234 4.89627L14.0903 4.61472C13.7481 4.46247 13.7481 3.96437 14.0903 3.81213L14.688 3.54632C15.5323 3.17079 16.2038 2.47681 16.5637 1.60772L16.7747 1.09831C16.9218 0.743273 17.4122 0.743273 17.5592 1.09831L17.7702 1.60772C18.1302 2.47681 18.8017 3.17079 19.646 3.54632L20.2436 3.81213C20.5859 3.96437 20.5859 4.46247 20.2436 4.61472L19.6106 4.89627C18.7874 5.26237 18.1277 5.93159 17.7615 6.77212ZM8.83366 2.4987H12.167V4.16537H8.83366C6.07223 4.16537 3.83366 6.40394 3.83366 9.16537C3.83366 12.1737 5.88539 14.1367 10.5003 16.2319V14.1654H12.167C14.9284 14.1654 17.167 11.9268 17.167 9.16537H18.8337C18.8337 12.8473 15.8489 15.832 12.167 15.832V18.7487C8.00033 17.082 2.16699 14.582 2.16699 9.16537C2.16699 5.48347 5.15176 2.4987 8.83366 2.4987Z" fill="black"/>
</g>
<defs>
<clipPath id="clip0_785_3144">
<rect width="20" height="20" fill="white" transform="translate(0.5)"/>
</clipPath>
</defs>
</svg>
